{
	"asset":{
		"generator":"Khronos glTF Blender I/O v3.5.30",
		"version":"2.0"
	},
	"scene":0,
	"scenes":[
		{
			"name":"Scene",
			"nodes":[
				6
			]
		}
	],
	"nodes":[
		{
			"name":"tip",
			"translation":[
				0,
				1,
				0
			]
		},
		{
			"children":[
				0
			],
			"name":"mid",
			"translation":[
				0,
				1,
				0
			]
		},
		{
			"name":"right",
			"rotation":[
				-2.6692541510442425e-08,
				2.6692537957728746e-08,
				0.7071067690849304,
				0.7071067690849304
			],
			"translation":[
				0,
				1,
				0
			]
		},
		{
			"name":"left",
			"rotation":[
				-2.6692541510442425e-08,
				-2.6692537957728746e-08,
				-0.7071067690849304,
				0.7071067690849304
			],
			"translation":[
				0,
				1,
				0
			]
		},
		{
			"children":[
				1,
				2,
				3
			],
			"name":"root"
		},
		{
			"mesh":0,
			"name":"Cube",
			"skin":0
		},
		{
			"children":[
				5,
				4
			],
			"name":"Armature",
			"scale":[
				1,
				1.2000000476837158,
				1
			]
		}
	],
	"animations":[
		{
			"channels":[
				{
					"sampler":0,
					"target":{
						"node":4,
						"path":"translation"
					}
				},
				{
					"sampler":1,
					"target":{
						"node":4,
						"path":"rotation"
					}
				},
				{
					"sampler":2,
					"target":{
						"node":4,
						"path":"scale"
					}
				},
				{
					"sampler":3,
					"target":{
						"node":1,
						"path":"scale"
					}
				},
				{
					"sampler":4,
					"target":{
						"node":1,
						"path":"rotation"
					}
				},
				{
					"sampler":5,
					"target":{
						"node":0,
						"path":"scale"
					}
				},
				{
					"sampler":6,
					"target":{
						"node":0,
						"path":"rotation"
					}
				},
				{
					"sampler":7,
					"target":{
						"node":2,
						"path":"rotation"
					}
				},
				{
					"sampler":8,
					"target":{
						"node":2,
						"path":"scale"
					}
				},
				{
					"sampler":9,
					"target":{
						"node":3,
						"path":"rotation"
					}
				},
				{
					"sampler":10,
					"target":{
						"node":3,
						"path":"scale"
					}
				}
			],
			"name":"ArmatureAction",
			"samplers":[
				{
					"input":7,
					"interpolation":"LINEAR",
					"output":8
				},
				{
					"input":7,
					"interpolation":"LINEAR",
					"output":9
				},
				{
					"input":7,
					"interpolation":"LINEAR",
					"output":10
				},
				{
					"input":7,
					"interpolation":"LINEAR",
					"output":11
				},
				{
					"input":7,
					"interpolation":"LINEAR",
					"output":12
				},
				{
					"input":7,
					"interpolation":"LINEAR",
					"output":13
				},
				{
					"input":7,
					"interpolation":"LINEAR",
					"output":14
				},
				{
					"input":7,
					"interpolation":"LINEAR",
					"output":15
				},
				{
					"input":7,
					"interpolation":"LINEAR",
					"output":16
				},
				{
					"input":7,
					"interpolation":"LINEAR",
					"output":17
				},
				{
					"input":7,
					"interpolation":"LINEAR",
					"output":18
				}
			]
		}
	],
	"materials":[
		{
			"doubleSided":true,
			"name":"Material",
			"pbrMetallicRoughness":{
				"baseColorTexture":{
					"index":0
				},
				"metallicFactor":0,
				"roughnessFactor":0.5
			}
		}
	],
	"meshes":[
		{
			"name":"Cube",
			"primitives":[
				{
					"attributes":{
						"POSITION":0,
						"TEXCOORD_0":1,
						"NORMAL":2,
						"JOINTS_0":3,
						"WEIGHTS_0":4
					},
					"indices":5,
					"material":0
				}
			]
		}
	],
	"textures":[
		{
			"sampler":0,
			"source":0
		}
	],
	"images":[
		{
			"bufferView":6,
			"mimeType":"image/png",
			"name":"dummy_texture"
		}
	],
	"skins":[
		{
			"inverseBindMatrices":6,
			"joints":[
				4,
				1,
				0,
				2,
				3
			],
			"name":"Armature"
		}
	],
	"accessors":[
		{
			"bufferView":0,
			"componentType":5126,
			"count":90,
			"max":[
				1,
				4,
				1
			],
			"min":[
				-1,
				0,
				-1
			],
			"type":"VEC3"
		},
		{
			"bufferView":1,
			"componentType":5126,
			"count":90,
			"type":"VEC2"
		},
		{
			"bufferView":2,
			"componentType":5126,
			"count":90,
			"type":"VEC3"
		},
		{
			"bufferView":3,
			"componentType":5121,
			"count":90,
			"type":"VEC4"
		},
		{
			"bufferView":4,
			"componentType":5126,
			"count":90,
			"type":"VEC4"
		},
		{
			"bufferView":5,
			"componentType":5123,
			"count":288,
			"type":"SCALAR"
		},
		{
			"bufferView":7,
			"componentType":5126,
			"count":5,
			"type":"MAT4"
		},
		{
			"bufferView":8,
			"componentType":5126,
			"count":4,
			"max":[
				5.333333333333333
			],
			"min":[
				0.03333333333333333
			],
			"type":"SCALAR"
		},
		{
			"bufferView":9,
			"componentType":5126,
			"count":4,
			"type":"VEC3"
		},
		{
			"bufferView":10,
			"componentType":5126,
			"count":4,
			"type":"VEC4"
		},
		{
			"bufferView":11,
			"componentType":5126,
			"count":4,
			"type":"VEC3"
		},
		{
			"bufferView":12,
			"componentType":5126,
			"count":4,
			"type":"VEC3"
		},
		{
			"bufferView":13,
			"componentType":5126,
			"count":4,
			"type":"VEC4"
		},
		{
			"bufferView":14,
			"componentType":5126,
			"count":4,
			"type":"VEC3"
		},
		{
			"bufferView":15,
			"componentType":5126,
			"count":4,
			"type":"VEC4"
		},
		{
			"bufferView":16,
			"componentType":5126,
			"count":4,
			"type":"VEC4"
		},
		{
			"bufferView":17,
			"componentType":5126,
			"count":4,
			"type":"VEC3"
		},
		{
			"bufferView":18,
			"componentType":5126,
			"count":4,
			"type":"VEC4"
		},
		{
			"bufferView":19,
			"componentType":5126,
			"count":4,
			"type":"VEC3"
		}
	],
	"bufferViews":[
		{
			"buffer":0,
			"byteLength":1080,
			"byteOffset":0,
			"target":34962
		},
		{
			"buffer":0,
			"byteLength":720,
			"byteOffset":1080,
			"target":34962
		},
		{
			"buffer":0,
			"byteLength":1080,
			"byteOffset":1800,
			"target":34962
		},
		{
			"buffer":0,
			"byteLength":360,
			"byteOffset":2880,
			"target":34962
		},
		{
			"buffer":0,
			"byteLength":1440,
			"byteOffset":3240,
			"target":34962
		},
		{
			"buffer":0,
			"byteLength":576,
			"byteOffset":4680,
			"target":34963
		},
		{
			"buffer":0,
			"byteLength":157,
			"byteOffset":5256
		},
		{
			"buffer":0,
			"byteLength":320,
			"byteOffset":5416
		},
		{
			"buffer":0,
			"byteLength":16,
			"byteOffset":5736
		},
		{
			"buffer":0,
			"byteLength":48,
			"byteOffset":5752
		},
		{
			"buffer":0,
			"byteLength":64,
			"byteOffset":5800
		},
		{
			"buffer":0,
			"byteLength":48,
			"byteOffset":5864
		},
		{
			"buffer":0,
			"byteLength":48,
			"byteOffset":5912
		},
		{
			"buffer":0,
			"byteLength":64,
			"byteOffset":5960
		},
		{
			"buffer":0,
			"byteLength":48,
			"byteOffset":6024
		},
		{
			"buffer":0,
			"byteLength":64,
			"byteOffset":6072
		},
		{
			"buffer":0,
			"byteLength":64,
			"byteOffset":6136
		},
		{
			"buffer":0,
			"byteLength":48,
			"byteOffset":6200
		},
		{
			"buffer":0,
			"byteLength":64,
			"byteOffset":6248
		},
		{
			"buffer":0,
			"byteLength":48,
			"byteOffset":6312
		}
	],
	"samplers":[
		{
			"magFilter":9729,
			"minFilter":9987
		}
	],
	"buffers":[
		{
			"byteLength":6360,
			"uri":"data:application/octet-stream;base64,"
		}
	]
}
