{
  "asset": {
    "version": "2.0"
  },
  "scene": 0,
  "scenes": [
    {
      "nodes": [
        0
      ]
    }
  ],
  "nodes": [
    {
      "mesh": 0
    }
  ],
  "meshes": [
    {
      "name": "Mesh0",
      "primitives": [
        {
          "attributes": {
            "POSITION": 0,
            "NORMAL": 4
          },
          "indices": 8
        },
        {
          "attributes": {
            "POSITION": 1,
            "NORMAL": 5
          },
          "indices": 8
        }
      ]
    },
    {
      "name": "Mesh1",
      "primitives": [
        {
          "attributes": {
            "POSITION": 2,
            "NORMAL": 6
          },
          "indices": 8
        },
        {
          "attributes": {
            "POSITION": 3,
            "NORMAL": 7
          },
          "indices": 8
        }
      ]
    }
  ],
  "accessors": [
    {
      "bufferView": 0,
      "byteOffset": 0,
      "componentType": 5126,
      "count": 3,
      "type": "VEC3",
      "min": [
        0,
        0,
        0
      ],
      "max": [
        1,
        1,
        0
      ]
    },
    {
      "bufferView": 0,
      "byteOffset": 36,
      "componentType": 5126,
      "count": 3,
      "type": "VEC3",
      "min": [
        2,
        0,
        0
      ],
      "max": [
        3,
        1,
        0
      ]
    },
    {
      "bufferView": 0,
      "byteOffset": 72,
      "componentType": 5126,
      "count": 3,
      "type": "VEC3",
      "min": [
        0,
        2,
        0
      ],
      "max": [
        1,
        3,
        0
      ]
    },
    {
      "bufferView": 0,
      "byteOffset": 108,
      "componentType": 5126,
      "count": 3,
      "type": "VEC3",
      "min": [
        2,
        2,
        0
      ],
      "max": [
        3,
        3,
        0
      ]
    },
    {
      "bufferView": 1,
      "byteOffset": 0,
      "componentType": 5126,
      "count": 3,
      "type": "VEC3"
    },
    {
      "bufferView": 1,
      "byteOffset": 36,
      "componentType": 5126,
      "count": 3,
      "type": "VEC3"
    },
    {
      "bufferView": 1,
      "byteOffset": 72,
      "componentType": 5126,
      "count": 3,
      "type": "VEC3"
    },
    {
      "bufferView": 1,
      "byteOffset": 108,
      "componentType": 5126,
      "count": 3,
      "type": "VEC3"
    },
    {
      "bufferView": 2,
      "componentType": 5123,
      "count": 3,
      "type": "SCALAR"
    }
  ],
  "bufferViews": [
    {
      "buffer": 0,
      "byteOffset": 0,
      "byteLength": 144
    },
    {
      "buffer": 0,
      "byteOffset": 144,
      "byteLength": 144
    },
    {
      "buffer": 0,
      "byteOffset": 288,
      "byteLength": 6
    }
  ],
  "buffers": [
    {
      "uri": "data:application/octet-stream;base64,",
      "byteLength": 296
    }
  ]
}